<svg viewBox="0 0 1024 1024" xmlns="http://www.w3.org/2000/svg" width="1024" height="1024"><path d="M896 820.224 896 320c0-106.048-85.952-192-192-192L203.776 128C230.208 53.568 300.48 0 384 0l448 0c106.048 0 192 85.952 192 192l0 448C1024 723.52 970.368 793.792 896 820.224zM832 384l0 448c0 105.984-85.952 192-192 192L192 1024c-106.048 0-192-86.016-192-192L0 384c0-106.048 85.952-192 192-192l448 0C746.048 192 832 277.952 832 384zM128 384l0 448c0 35.392 28.608 64 64 64l448 0c35.392 0 64-28.608 64-64L704 384c0-35.328-28.608-64-64-64L192 320C156.608 320 128 348.672 128 384z" fill="#FFFFFF"/></svg>
